<svg xmlns="http://www.w3.org/2000/svg" viewBox="0 0 94.158 14.5"><path d="M2.7,6.048,4.33,13.479h.2L6.344,6.048H9.365L11.2,13.479h.222l1.652-7.431h2.638L12.869,16.419h-3.1L7.955,9.109h-.2l-1.793,7.31H2.84L0,6.048Z" transform="translate(0 -2.241)" fill="#fff"/><path d="M26.272,0h2.659V5.135h.222a3.284,3.284,0,0,1,3.041-1.57c2.4,0,3.726,1.49,3.726,4.189v6.424H33.24v-6.5c0-1.55-.906-1.954-1.833-1.954-1.087,0-2.477.685-2.477,2.981v5.478H26.272Z" transform="translate(-9.737)" fill="#fff"/><path d="M54.053,16.277a8.921,8.921,0,0,1-1.611.161c-1.289,0-1.974-.664-1.974-1.752h-.222A3.39,3.39,0,0,1,46.924,16.6c-2.034,0-3.565-1.128-3.565-3.021,0-1.671,1.249-2.638,4.008-3.262l2.759-.624V9.35c0-.927-.685-1.45-1.913-1.45-1.188,0-1.853.463-1.793,1.55l-2.578.725c-.422-3.161,1.833-4.511,4.451-4.511,2.518,0,4.491,1.248,4.491,3.686v4.209c0,.463.3.7.886.463Zm-3.846-4.35v-.5l-2.356.625c-1.309.342-1.672.866-1.672,1.39,0,.664.564,1.047,1.37,1.047A2.558,2.558,0,0,0,50.207,11.927Z" transform="translate(-16.069 -2.099)" fill="#fff"/><path d="M61.371,12V6.626H59.679V4.471h1.692V1.792h2.659V4.471h2.236V6.626H64.029V11.68c0,.846.685,1.108,2.074.8l.161,2.356a8.988,8.988,0,0,1-1.853.242A2.759,2.759,0,0,1,61.371,12Z" transform="translate(-22.117 -0.664)" fill="#fff"/><path d="M73.609,6.048l1.631,7.431h.2l1.813-7.431h3.021l1.832,7.431h.222l1.652-7.431h2.638L83.78,16.419h-3.1l-1.813-7.31h-.2l-1.793,7.31H73.75L70.911,6.048Z" transform="translate(-26.28 -2.241)" fill="#fff"/><path d="M103.581,12.793l2.618.483a5.033,5.033,0,0,1-5.055,3.323,5.148,5.148,0,0,1-5.337-5.457,5.152,5.152,0,0,1,5.377-5.478c3.182,0,5.075,2.3,5.075,6.3H98.525a2.641,2.641,0,0,0,5.055.826Zm-5.015-2.719h4.894A2.323,2.323,0,0,0,101.083,7.9,2.522,2.522,0,0,0,98.566,10.074Z" transform="translate(-35.507 -2.099)" fill="#fff"/><path d="M113.6,9.043c0-3.343,2.236-5.478,4.874-5.478a3.927,3.927,0,0,1,3.121,1.45h.1V0h2.679V14.178h-2.538V12.829h-.222a3.326,3.326,0,0,1-3.141,1.671C115.834,14.5,113.6,12.365,113.6,9.043Zm8.1,0c0-2.054-1.188-3.242-2.659-3.242-1.449,0-2.779,1.188-2.779,3.242a2.924,2.924,0,0,0,2.779,3.222C120.506,12.264,121.694,11.077,121.694,9.043Z" transform="translate(-42.1)" fill="#fff"/><path d="M132.322,11.142a5.438,5.438,0,1,1,10.875,0,5.438,5.438,0,1,1-10.875,0Zm8.217,0c0-2.074-1.149-3.242-2.779-3.242s-2.779,1.168-2.779,3.242,1.148,3.243,2.779,3.243S140.539,13.216,140.539,11.142Z" transform="translate(-49.039 -2.099)" fill="#fff"/></svg>
